<svg xmlns="http://www.w3.org/2000/svg" version="1.1" xmlns:xlink="http://www.w3.org/1999/xlink" xmlns:svgjs="http://svgjs.dev/svgjs" viewBox="0 0 14.993324573252572 6.511431471118425"><g transform="matrix(1,0,0,1,1.909015802251286,2.8870633918092126)"><rect width="14.993324573252572" height="14.993324573252572" x="-1.909015802251286" y="-7.128009942876286" fill="#ffffff"></rect><g transform="matrix(1,0,0,1,0,0)"><g clip-path="url(#SvgjsClipPath1002)"><path d=" M -1.1000000000000005 -2.0780475895579267 L 12.275292968750001 -2.0780475895579267 L 12.275292968750001 2.8153522770579267 L -1.1000000000000005 2.8153522770579267 Z" fill="#4e888f" transform="matrix(1,0,0,1,0,0)" fill-rule="nonzero"></path></g></g><g transform="matrix(1,0,0,1,0,0)"><path d=" M 0.0927734375 0.01171875 L 0.37548828125 0.01171875 L 0.375 0.7373046875 L 0.0927734375 0.7373046875 L 0.0927734375 0.01171875 M 0.56103515625 0.01171875 L 0.73779296875 0.01171875 L 1.1982421875 0.3984375 L 1.19873046875 0.01171875 L 1.30615234375 0.01171875 L 1.30615234375 0.7373046875 L 1.12939453125 0.7373046875 L 0.66845703125 0.35205078125 L 0.66845703125 0.7373046875 L 0.56103515625 0.7373046875 L 0.56103515625 0.01171875 M 1.4189453125 0.01171875 L 1.72802734375 0.01171875 L 1.89794921875 0.47802734375 L 2.05517578125 0.01171875 L 2.1826171875 0.01123046875 L 1.92822265625 0.7373046875 L 1.6982421875 0.73681640625 L 1.4189453125 0.01171875 M 2.28173828125 0.01171875 L 2.89501953125 0.01171875 L 2.89501953125 0.12353515625 L 2.564453125 0.12353515625 L 2.56396484375 0.3193359375 L 2.81689453125 0.3193359375 L 2.81689453125 0.43115234375 L 2.56396484375 0.43115234375 L 2.56396484375 0.62548828125 L 2.89501953125 0.62548828125 L 2.89501953125 0.7373046875 L 2.28173828125 0.7373046875 L 2.28173828125 0.01171875 M 3.0400390625 0.01171875 L 3.216796875 0.01171875 L 3.67724609375 0.3984375 L 3.677734375 0.01171875 L 3.78515625 0.01171875 L 3.78515625 0.7373046875 L 3.6083984375 0.7373046875 L 3.1474609375 0.35205078125 L 3.1474609375 0.7373046875 L 3.0400390625 0.7373046875 L 3.0400390625 0.01171875 M 4.09814453125 0.123046875 L 3.89111328125 0.123046875 L 3.89111328125 0.01123046875 L 4.58740234375 0.01123046875 L 4.58740234375 0.123046875 L 4.38037109375 0.123046875 L 4.38037109375 0.7373046875 L 4.09814453125 0.7373046875 L 4.09814453125 0.123046875 M 4.65087890625 0.373046875 Q 4.65087890625 0.29052734375 4.67724609375 0.221923828125 Q 4.70361328125 0.1533203125 4.755859375 0.10400390625 Q 4.80810546875 0.0546875 4.88623046875 0.02734375 Q 4.96435546875 0 5.06787109375 0 Q 5.17138671875 0 5.24951171875 0.02734375 Q 5.32763671875 0.0546875 5.3798828125 0.10400390625 Q 5.43212890625 0.1533203125 5.45849609375 0.221923828125 Q 5.48486328125 0.29052734375 5.48486328125 0.373046875 Q 5.48486328125 0.45654296875 5.45849609375 0.52587890625 Q 5.43212890625 0.59521484375 5.3798828125 0.64453125 Q 5.32763671875 0.69384765625 5.24951171875 0.72119140625 Q 5.17138671875 0.74853515625 5.06787109375 0.74853515625 Q 4.96435546875 0.74853515625 4.88623046875 0.72119140625 Q 4.80810546875 0.69384765625 4.755859375 0.64453125 Q 4.70361328125 0.59521484375 4.67724609375 0.52587890625 Q 4.65087890625 0.45654296875 4.65087890625 0.373046875 M 5.06787109375 0.6474609375 Q 5.09716796875 0.6474609375 5.11962890625 0.63720703125 Q 5.14208984375 0.626953125 5.1572265625 0.59716796875 Q 5.17236328125 0.5673828125 5.18017578125 0.513671875 Q 5.18798828125 0.4599609375 5.18798828125 0.373046875 Q 5.18798828125 0.287109375 5.18017578125 0.23388671875 Q 5.17236328125 0.1806640625 5.1572265625 0.1513671875 Q 5.14208984375 0.1220703125 5.11962890625 0.11181640625 Q 5.09716796875 0.1015625 5.06787109375 0.1015625 Q 5.03857421875 0.1015625 5.015869140625 0.11181640625 Q 4.9931640625 0.1220703125 4.97802734375 0.1513671875 Q 4.962890625 0.1806640625 4.955078125 0.23388671875 Q 4.947265625 0.287109375 4.947265625 0.373046875 Q 4.947265625 0.4599609375 4.955078125 0.513671875 Q 4.962890625 0.5673828125 4.97802734375 0.59716796875 Q 4.9931640625 0.626953125 5.015869140625 0.63720703125 Q 5.03857421875 0.6474609375 5.06787109375 0.6474609375 M 5.6279296875 0.01171875 L 6.04638671875 0.01171875 Q 6.12744140625 0.01171875 6.188232421875 0.02880859375 Q 6.2490234375 0.0458984375 6.289794921875 0.07666015625 Q 6.33056640625 0.107421875 6.35107421875 0.150390625 Q 6.37158203125 0.193359375 6.37158203125 0.2451171875 Q 6.37158203125 0.30908203125 6.34130859375 0.358642578125 Q 6.31103515625 0.408203125 6.25146484375 0.4375 L 6.40380859375 0.73779296875 L 6.0849609375 0.73779296875 L 5.9697265625 0.47412109375 L 5.91015625 0.47412109375 L 5.91015625 0.7373046875 L 5.6279296875 0.7373046875 L 5.6279296875 0.01171875 M 5.92724609375 0.3857421875 Q 5.9619140625 0.3857421875 5.9892578125 0.3759765625 Q 6.0166015625 0.3662109375 6.03564453125 0.348388671875 Q 6.0546875 0.33056640625 6.06494140625 0.305908203125 Q 6.0751953125 0.28125 6.0751953125 0.251953125 Q 6.0751953125 0.22265625 6.06494140625 0.197998046875 Q 6.0546875 0.17333984375 6.03564453125 0.155517578125 Q 6.0166015625 0.1376953125 5.9892578125 0.1279296875 Q 5.9619140625 0.1181640625 5.92724609375 0.1181640625 L 5.91064453125 0.1181640625 L 5.91015625 0.3857421875 L 5.92724609375 0.3857421875 M 6.6982421875 0.53271484375 L 6.4521484375 0.01171875 L 6.76123046875 0.01171875 L 6.93994140625 0.3857421875 L 7.083984375 0.01171875 L 7.2119140625 0.01171875 L 6.9951171875 0.53271484375 L 6.9951171875 0.7373046875 L 6.6982421875 0.7373046875 L 6.6982421875 0.53271484375 M 7.5537109375 0.01171875 L 7.86279296875 0.01171875 L 8.03271484375 0.47802734375 L 8.18994140625 0.01171875 L 8.3173828125 0.01123046875 L 8.06298828125 0.7373046875 L 7.8330078125 0.73681640625 L 7.5537109375 0.01171875 M 8.41650390625 0.01171875 L 8.69921875 0.01171875 L 8.69873046875 0.7373046875 L 8.41650390625 0.7373046875 L 8.41650390625 0.01171875 M 8.89453125 0.576171875 Q 8.9462890625 0.6025390625 9.0029296875 0.61572265625 Q 9.0595703125 0.62890625 9.1083984375 0.62890625 Q 9.16455078125 0.62890625 9.190673828125 0.61279296875 Q 9.216796875 0.5966796875 9.216796875 0.56884765625 Q 9.216796875 0.56005859375 9.213623046875 0.55078125 Q 9.21044921875 0.54150390625 9.201416015625 0.532470703125 Q 9.1923828125 0.5234375 9.176513671875 0.514404296875 Q 9.16064453125 0.50537109375 9.13525390625 0.49658203125 L 9.0478515625 0.466796875 Q 8.9541015625 0.4345703125 8.90673828125 0.379638671875 Q 8.859375 0.32470703125 8.859375 0.2490234375 Q 8.859375 0.2001953125 8.8798828125 0.155029296875 Q 8.900390625 0.10986328125 8.94189453125 0.075439453125 Q 8.9833984375 0.041015625 9.046630859375 0.0205078125 Q 9.10986328125 0 9.19482421875 0 Q 9.23681640625 0 9.275390625 0.0048828125 Q 9.31396484375 0.009765625 9.347900390625 0.017578125 Q 9.3818359375 0.025390625 9.41015625 0.035400390625 Q 9.4384765625 0.04541015625 9.4599609375 0.05517578125 L 9.4072265625 0.150390625 Q 9.3916015625 0.140625 9.374267578125 0.13330078125 Q 9.35693359375 0.1259765625 9.339599609375 0.12109375 Q 9.322265625 0.1162109375 9.3056640625 0.11376953125 Q 9.2890625 0.111328125 9.275390625 0.111328125 Q 9.251953125 0.111328125 9.234375 0.117431640625 Q 9.216796875 0.12353515625 9.204833984375 0.133544921875 Q 9.19287109375 0.1435546875 9.186767578125 0.156005859375 Q 9.1806640625 0.16845703125 9.1806640625 0.1806640625 Q 9.1806640625 0.19140625 9.185791015625 0.201416015625 Q 9.19091796875 0.21142578125 9.203369140625 0.220947265625 Q 9.2158203125 0.23046875 9.236083984375 0.239990234375 Q 9.25634765625 0.24951171875 9.28662109375 0.259765625 L 9.34521484375 0.279296875 Q 9.4404296875 0.31103515625 9.49072265625 0.36669921875 Q 9.541015625 0.42236328125 9.541015625 0.50146484375 Q 9.541015625 0.55517578125 9.516845703125 0.6005859375 Q 9.49267578125 0.64599609375 9.44482421875 0.678955078125 Q 9.39697265625 0.7119140625 9.325927734375 0.730224609375 Q 9.2548828125 0.74853515625 9.1611328125 0.74853515625 Q 9.1162109375 0.74853515625 9.074462890625 0.743896484375 Q 9.03271484375 0.7392578125 8.992919921875 0.72998046875 Q 8.953125 0.720703125 8.91455078125 0.70654296875 Q 8.8759765625 0.6923828125 8.83740234375 0.67333984375 L 8.89453125 0.576171875 M 9.8037109375 0.123046875 L 9.5966796875 0.123046875 L 9.5966796875 0.01123046875 L 10.29296875 0.01123046875 L 10.29296875 0.123046875 L 10.0859375 0.123046875 L 10.0859375 0.7373046875 L 9.8037109375 0.7373046875 L 9.8037109375 0.123046875 M 10.599609375 0.19482421875 L 10.515625 0.01171875 L 10.81298828125 0.01171875 L 11.16845703125 0.73779296875 L 10.849609375 0.73779296875 L 10.7958984375 0.62158203125 L 10.509765625 0.62158203125 L 10.45654296875 0.73779296875 L 10.3330078125 0.73779296875 L 10.599609375 0.19482421875 M 10.74462890625 0.509765625 L 10.65283203125 0.310546875 L 10.5615234375 0.509765625 L 10.74462890625 0.509765625" fill="#ffffff" fill-rule="nonzero"></path></g><g transform="matrix(1,0,0,1,0,0)"></g></g><defs><clipPath id="SvgjsClipPath1002"><path d=" M -1.1000000000000005 -2.0780475895579267 h 13.375292968750001 v 4.893399866615853 h -13.375292968750001 Z"></path></clipPath></defs></svg>