<svg xmlns="http://www.w3.org/2000/svg" version="1.1" xmlns:xlink="http://www.w3.org/1999/xlink" xmlns:svgjs="http://svgjs.dev/svgjs" viewBox="0 0 12.266951232071888 5.327398330966704"><g transform="matrix(1,0,0,1,1.7619050593953194,2.305699165483352)"><g transform="matrix(1,0,0,1,0,0)"><g clip-path="url(#SvgjsClipPath1002)"><path d=" M -1.0999999999999996 -1.6437941060880332 L 9.843141113281249 -1.6437941060880332 L 9.843141113281249 2.3597941060880334 L -1.0999999999999996 2.3597941060880334 Z" fill="#001233" transform="matrix(1,0,0,1,0,0)" fill-rule="nonzero"></path></g></g><g transform="matrix(1,0,0,1,0,0)"><path d=" M 0.061 0.716 L 0.061 0.006000000000000005 L 0.256 0.006000000000000005 L 0.256 0.716 L 0.061 0.716 M 0.5720166015625 0.36699999999999994 L 0.5720166015625 0.716 L 0.3770166015625 0.716 L 0.3770166015625 0.006000000000000005 L 0.5290166015625 0.006000000000000005 L 0.8140166015625 0.36699999999999994 L 0.8140166015625 0.006000000000000005 L 1.0090166015625002 0.006000000000000005 L 1.0090166015625002 0.716 L 0.8540166015625 0.716 L 0.5720166015625 0.36699999999999994 M 1.267044921875 0.006000000000000005 L 1.406044921875 0.491 L 1.543044921875 0.006000000000000005 L 1.748044921875 0.006000000000000005 L 1.503044921875 0.716 L 1.309044921875 0.716 L 1.061044921875 0.006000000000000005 L 1.267044921875 0.006000000000000005 M 2.3070419921875 0.5459999999999999 L 2.3070419921875 0.716 L 1.8010419921874998 0.716 L 1.8010419921874998 0.006000000000000005 L 2.2980419921874997 0.006000000000000005 L 2.2980419921874997 0.17599999999999993 L 1.9960419921875 0.17599999999999993 L 1.9960419921875 0.27599999999999997 L 2.2540419921875 0.27599999999999997 L 2.2540419921875 0.43399999999999994 L 1.9960419921875 0.43399999999999994 L 1.9960419921875 0.5459999999999999 L 2.3070419921875 0.5459999999999999 M 2.59202685546875 0.36699999999999994 L 2.59202685546875 0.716 L 2.39702685546875 0.716 L 2.39702685546875 0.006000000000000005 L 2.54902685546875 0.006000000000000005 L 2.8340268554687498 0.36699999999999994 L 2.8340268554687498 0.006000000000000005 L 3.02902685546875 0.006000000000000005 L 3.02902685546875 0.716 L 2.87402685546875 0.716 L 2.59202685546875 0.36699999999999994 M 3.70305517578125 0.17599999999999993 L 3.4990551757812502 0.17599999999999993 L 3.4990551757812502 0.716 L 3.30405517578125 0.716 L 3.30405517578125 0.17599999999999993 L 3.09905517578125 0.17599999999999993 L 3.09905517578125 0.006000000000000005 L 3.70305517578125 0.006000000000000005 L 3.70305517578125 0.17599999999999993 M 4.08209228515625 0.722 Q 4.0010922851562505 0.722 3.93509228515625 0.6915 Q 3.8690922851562504 0.6609999999999999 3.82159228515625 0.6094999999999999 Q 3.77409228515625 0.5579999999999999 3.74859228515625 0.49349999999999994 Q 3.72309228515625 0.42899999999999994 3.72309228515625 0.36 Q 3.72309228515625 0.289 3.75009228515625 0.22499999999999998 Q 3.7770922851562503 0.16099999999999992 3.82559228515625 0.11049999999999993 Q 3.8740922851562503 0.05999999999999994 3.9405922851562503 0.030999999999999917 Q 4.00709228515625 0.0020000000000000018 4.0860922851562504 0.0020000000000000018 Q 4.16709228515625 0.0020000000000000018 4.23309228515625 0.03249999999999997 Q 4.2990922851562505 0.06299999999999994 4.34609228515625 0.11499999999999999 Q 4.39309228515625 0.16699999999999993 4.41859228515625 0.23149999999999998 Q 4.44409228515625 0.296 4.44409228515625 0.364 Q 4.44409228515625 0.43399999999999994 4.417592285156251 0.498 Q 4.39109228515625 0.5619999999999999 4.34259228515625 0.6124999999999999 Q 4.29409228515625 0.6629999999999999 4.22809228515625 0.6925 Q 4.16209228515625 0.722 4.08209228515625 0.722 M 3.9210922851562504 0.362 Q 3.9210922851562504 0.39799999999999996 3.93109228515625 0.43149999999999994 Q 3.94109228515625 0.46499999999999997 3.9610922851562504 0.49149999999999994 Q 3.98109228515625 0.518 4.01159228515625 0.5335 Q 4.04209228515625 0.5489999999999999 4.084092285156251 0.5489999999999999 Q 4.1260922851562505 0.5489999999999999 4.15709228515625 0.5329999999999999 Q 4.18809228515625 0.5169999999999999 4.207592285156251 0.48949999999999994 Q 4.2270922851562505 0.46199999999999997 4.2365922851562505 0.42849999999999994 Q 4.246092285156251 0.39499999999999996 4.246092285156251 0.36 Q 4.246092285156251 0.32399999999999995 4.23609228515625 0.291 Q 4.22609228515625 0.25799999999999995 4.2060922851562506 0.23149999999999998 Q 4.18609228515625 0.20499999999999996 4.15509228515625 0.18999999999999995 Q 4.12409228515625 0.17499999999999993 4.08309228515625 0.17499999999999993 Q 4.0410922851562505 0.17499999999999993 4.0105922851562505 0.19099999999999995 Q 3.98009228515625 0.20699999999999996 3.96009228515625 0.23349999999999999 Q 3.94009228515625 0.25999999999999995 3.93059228515625 0.2935 Q 3.9210922851562504 0.32699999999999996 3.9210922851562504 0.362 M 4.52610693359375 0.716 L 4.52610693359375 0.006000000000000005 L 4.852106933593751 0.006000000000000005 Q 4.90410693359375 0.006000000000000005 4.94810693359375 0.026999999999999913 Q 4.9921069335937505 0.04799999999999993 5.0241069335937505 0.08349999999999991 Q 5.0561069335937505 0.119 5.073606933593751 0.16299999999999992 Q 5.091106933593751 0.20699999999999996 5.091106933593751 0.25199999999999995 Q 5.091106933593751 0.293 5.07910693359375 0.33099999999999996 Q 5.067106933593751 0.36899999999999994 5.04410693359375 0.40049999999999997 Q 5.02110693359375 0.43199999999999994 4.98910693359375 0.45499999999999996 L 5.139106933593751 0.716 L 4.92510693359375 0.716 L 4.80010693359375 0.498 L 4.7211069335937506 0.498 L 4.7211069335937506 0.716 L 4.52610693359375 0.716 M 4.7211069335937506 0.32799999999999996 L 4.84410693359375 0.32799999999999996 Q 4.85610693359375 0.32799999999999996 4.8671069335937505 0.31899999999999995 Q 4.878106933593751 0.30999999999999994 4.88560693359375 0.293 Q 4.89310693359375 0.27599999999999997 4.89310693359375 0.25199999999999995 Q 4.89310693359375 0.22699999999999998 4.8846069335937505 0.2104999999999999 Q 4.87610693359375 0.19399999999999995 4.863606933593751 0.18499999999999994 Q 4.8511069335937504 0.17599999999999993 4.83910693359375 0.17599999999999993 L 4.7211069335937506 0.17599999999999993 L 4.7211069335937506 0.32799999999999996 M 5.3021025390625 0.006000000000000005 L 5.4291025390625 0.296 L 5.5591025390625 0.006000000000000005 L 5.7711025390625 0.006000000000000005 L 5.5261025390625 0.481 L 5.5261025390625 0.716 L 5.3321025390625 0.716 L 5.3321025390625 0.479 L 5.0911025390625 0.006000000000000005 L 5.3021025390625 0.006000000000000005 M 6.11310986328125 0.006000000000000005 L 6.252109863281249 0.491 L 6.3891098632812495 0.006000000000000005 L 6.59410986328125 0.006000000000000005 L 6.3491098632812495 0.716 L 6.1551098632812495 0.716 L 5.907109863281249 0.006000000000000005 L 6.11310986328125 0.006000000000000005 M 6.647106933593749 0.716 L 6.647106933593749 0.006000000000000005 L 6.842106933593749 0.006000000000000005 L 6.842106933593749 0.716 L 6.647106933593749 0.716 M 7.393123535156248 0.23799999999999993 Q 7.393123535156248 0.23799999999999993 7.376123535156249 0.22799999999999998 Q 7.3591235351562485 0.21799999999999997 7.331123535156249 0.2054999999999999 Q 7.3031235351562485 0.19299999999999995 7.270123535156249 0.18299999999999994 Q 7.237123535156249 0.17299999999999993 7.205123535156249 0.17299999999999993 Q 7.180123535156248 0.17299999999999993 7.164123535156248 0.18099999999999994 Q 7.148123535156248 0.18899999999999995 7.148123535156248 0.20799999999999996 Q 7.148123535156248 0.22599999999999998 7.164123535156248 0.23699999999999993 Q 7.180123535156248 0.24799999999999994 7.209623535156249 0.25699999999999995 Q 7.239123535156248 0.26599999999999996 7.280123535156249 0.27899999999999997 Q 7.346123535156249 0.299 7.394123535156249 0.32499999999999996 Q 7.442123535156249 0.351 7.4681235351562485 0.39149999999999996 Q 7.494123535156248 0.43199999999999994 7.494123535156248 0.499 Q 7.494123535156248 0.563 7.471123535156249 0.6064999999999999 Q 7.448123535156249 0.6499999999999999 7.409123535156248 0.6759999999999999 Q 7.370123535156249 0.702 7.322123535156249 0.7135 Q 7.2741235351562485 0.725 7.224123535156249 0.725 Q 7.173123535156249 0.725 7.117623535156248 0.7145 Q 7.062123535156249 0.704 7.010123535156248 0.6855 Q 6.958123535156249 0.6669999999999999 6.915123535156249 0.642 L 6.999123535156249 0.471 Q 6.999123535156249 0.471 7.019123535156249 0.483 Q 7.039123535156248 0.495 7.072123535156249 0.51 Q 7.105123535156249 0.5249999999999999 7.145623535156249 0.5369999999999999 Q 7.1861235351562485 0.5489999999999999 7.227123535156249 0.5489999999999999 Q 7.259123535156249 0.5489999999999999 7.271623535156249 0.5405 Q 7.284123535156248 0.532 7.284123535156248 0.518 Q 7.284123535156248 0.497 7.262123535156249 0.48549999999999993 Q 7.240123535156249 0.474 7.204623535156249 0.46349999999999997 Q 7.169123535156249 0.45299999999999996 7.126123535156249 0.43899999999999995 Q 7.064123535156249 0.418 7.0241235351562485 0.39149999999999996 Q 6.9841235351562485 0.36499999999999994 6.965123535156248 0.32849999999999996 Q 6.946123535156248 0.292 6.946123535156248 0.23999999999999994 Q 6.946123535156248 0.16099999999999992 6.983123535156249 0.10799999999999998 Q 7.020123535156249 0.05499999999999994 7.080623535156248 0.02749999999999997 Q 7.1411235351562485 0 7.211123535156249 0 Q 7.263123535156248 0 7.311623535156249 0.012499999999999956 Q 7.360123535156249 0.02499999999999991 7.402623535156248 0.04299999999999993 Q 7.445123535156249 0.06099999999999994 7.477123535156249 0.07699999999999996 L 7.393123535156248 0.23799999999999993 M 8.132127929687499 0.17599999999999993 L 7.9281279296874985 0.17599999999999993 L 7.9281279296874985 0.716 L 7.733127929687498 0.716 L 7.733127929687498 0.17599999999999993 L 7.528127929687498 0.17599999999999993 L 7.528127929687498 0.006000000000000005 L 8.132127929687499 0.006000000000000005 L 8.132127929687499 0.17599999999999993 M 8.301148925781249 0.006000000000000005 L 8.519148925781248 0.006000000000000005 L 8.74514892578125 0.716 L 8.547148925781249 0.716 L 8.50414892578125 0.577 L 8.31514892578125 0.577 L 8.273148925781248 0.716 L 8.074148925781248 0.716 L 8.301148925781249 0.006000000000000005 M 8.47314892578125 0.44699999999999995 L 8.410148925781249 0.19699999999999995 L 8.34414892578125 0.44699999999999995 L 8.47314892578125 0.44699999999999995" fill="#ffffff" fill-rule="nonzero"></path></g><g transform="matrix(1,0,0,1,0,0)"></g></g><defs><clipPath id="SvgjsClipPath1002"><path d=" M -1.0999999999999996 -1.6437941060880332 h 10.943141113281248 v 4.003588212176067 h -10.943141113281248 Z"></path></clipPath></defs></svg>